<?xml version="1.0" encoding="utf-8"?>
<!-- Generator: Adobe Illustrator 16.0.0, SVG Export Plug-In . SVG Version: 6.00 Build 0)  -->
<!DOCTYPE svg PUBLIC "-//W3C//DTD SVG 1.1//EN" "http://www.w3.org/Graphics/SVG/1.1/DTD/svg11.dtd">
<svg version="1.1" xmlns="http://www.w3.org/2000/svg" xmlns:xlink="http://www.w3.org/1999/xlink" x="0px" y="0px"
	 width="415.479px" height="640.468px" viewBox="0 0 415.479 640.468" enable-background="new 0 0 415.479 640.468"
	 xml:space="preserve">
<g id="Background">
</g>
<g id="Objects">
	<path opacity="0.8" fill="#BC8542" d="M317.511,571.055c-9.497-7.665-25.168-7.873-36.736-8.807
		c-18.977-1.53-37.886-2.612-56.936-2.726c-11.162-0.064-22.299,0.19-33.449,0.718c-6.5,0.307-13.603,0.782-20.323,2.214
		c-2.805,0.286-5.61,0.587-8.415,0.91c-13.713,1.575-27.632,0.599-41.011,4.567c-10.519,3.12-26.473,11.985-17.298,24.757
		c5.112,7.116,19.018,7.189,26.781,7.982c16.434,1.674,32.986,1.008,49.472,0.855c17.322-0.158,34.534,1.346,51.831,2.012
		c17.408,0.67,34.84,0.625,52.236-0.336c8.996-0.495,18.814-0.775,27.46-3.538c5.85-1.87,11.111-4.835,13.337-10.909
		C326.976,581.892,322.63,575.188,317.511,571.055z"/>
	<path fill="#F7DEBF" d="M311.038,294.651c0.498-0.166,0.766-0.26,0.766-0.26c8.092-55.03,0.118-98.902-17.99-124.82
		c-43.076-61.654-139.013-44.997-168.414-5.346c-33.715,45.47-14.547,136.645-14.547,136.645c0.136,0.037,0.271,0.071,0.407,0.108
		C208.431,327.443,301.774,297.748,311.038,294.651z"/>
	<path fill="#BC8542" d="M105.128,247.103c0,0,6.521-13.306,16.633-4.79c10.113,8.516,1.131,27.677,1.131,27.677l12.582,0.532
		c0,0,5.114-26.612,0.017-45.242c-5.097-18.628-4.557-40.451,7.153-52.161c11.71-11.709,28.746,0,69.197,0
		c40.451,0,45.775-14.371,61.744,0c15.967,14.371,18.097,35.556,16.5,50.991c-1.597,15.436,1.598,39.282,1.598,39.282h8.516
		c0,0-5.818-38.793,14.122-27.594c0,0-5.072-43.381-5.072-62.199c0-22.887-11.177-46.813-30.34-52.136
		c-7.688-2.135-14.819,2.559-21.821,0.014c-10.45-3.796-20.351-10.852-29.274-11.171c-14.902-0.532-16.5,6.922-34.064,4.793
		c-4.784-0.58-19.161-4.788-29.806-1.594c-10.646,3.193-17.032,19.694-25.016,22.887c-7.984,3.194-11.901,0.533-20.758,11.178
		c-8.857,10.645-9.877,33.56-10.409,39.414C107.227,192.839,102.201,233.264,105.128,247.103z"/>
	<g>
		<path fill="#E9BF9E" d="M211.313,230.603c0,0-13.839,27.677-5.855,34.064c7.984,6.387,14.903,2.129,17.031-3.726
			C224.62,255.087,211.313,230.603,211.313,230.603z"/>
		<g>
			<path fill="#493F3E" d="M193.277,224.034c-0.454-0.338-0.951-0.614-1.503-0.805c-1.151-0.397-2.401-0.375-3.548,0.007
				c-0.631,0.11-1.213,0.317-1.979,0.605c-1.511,0.569-2.734,2.191-3.242,3.665c-0.548,1.593-0.444,3.37,0.299,4.884
				c1.679,3.424,6.149,4.856,9.538,3.113c2.06-1.061,3.47-3.044,3.648-5.376C196.681,227.624,195.369,225.287,193.277,224.034z"/>
			<path fill="#493F3E" d="M229.244,224.421c-5.232,0-5.866,8.128-0.61,8.128C233.866,232.549,234.5,224.421,229.244,224.421z"/>
		</g>
		<path fill="#833741" d="M215.684,278.677c-1.986-0.988-3.785,0.292-4.487,2.199c-0.744,2.019,0.017,4.653,1.771,5.89
			c0.116,0.082,0.238,0.139,0.362,0.185c-0.523,0.796-1.2,1.523-1.878,2.051c-1.337,1.04,0.16,2.778,1.528,2.292
			c2.597-0.922,4.351-3.393,4.861-6.052C218.228,283.231,217.78,279.721,215.684,278.677z"/>
		<path fill="#FFFFFF" d="M232.26,196.076c-5.549,5.155-12.532,6.754-19.92,5.681c-0.355-0.052-0.731-0.118-1.118-0.197
			c3.664-4.416,5.01-9.711,2.551-15.092c-2.564-5.61-8.784-7.061-13.586-3.646c-3.532,2.512-5.348,7.69-4.283,11.805
			c1.061,4.099,4.715,6.807,8.322,8.654c-6.15,4.038-15.165,5.297-21.307,1.118c-1.143-0.778-2.279,0.954-1.184,1.774
			c7.27,5.444,18.733,4.032,26.042-1.39c9.162,3.137,21.318,1.719,26.893-6.602C235.681,196.672,233.616,194.817,232.26,196.076z
			 M199.446,190.582c0.412-1.974,1.808-3.612,3.178-4.997c3.404-3.442,7.101,0.761,8.449,3.588
			c1.918,4.019-0.602,8.378-3.483,11.341C203.009,198.806,198.414,195.516,199.446,190.582z"/>
	</g>
	<path fill="#323526" d="M159.685,573.908c0,0-7.101,0.491-8.617,0.672c-2.333,0.279-5.112,1.31-6.103,3.625
		c-2.106,4.923,4.219,6.707,7.792,6.768c4.528,0.074,9.02-0.854,13.391-2.021c7.051-1.883,4.719-10.108,4.719-10.108
		L159.685,573.908z"/>
	<path fill="#323526" d="M249.316,575.489c1.302,9.217,19.559,8.144,26.009,6.17c4.616-1.413,6.352-6.241,1.732-9.019
		c-2.27-1.363-5.346-0.781-7.8-0.406c-2.646,0.405-8.091,0.78-8.091,0.78L249.316,575.489z"/>
	<path fill="#FF5252" d="M307.903,447.153c0,0-1.11-0.169-3.163-0.466c-93.972,20.146-184.257,1.69-192.531-0.089
		c-0.232,0.349-0.442,0.703-0.618,1.069c0,0,5.257,13.877,41.241,31.005c0,0-0.301,15.849,0.466,35.623
		c0.923,23.812,5,50.859,6.106,57.866c0.177,1.119,0.281,1.746,0.281,1.746l11.182-1.064c0,0-0.034-0.578-0.088-1.606
		c-0.358-6.814-1.615-33.919,0.062-50.935c1.579-16.026,6.592-33.191,6.592-33.191s33.059,6.434,58.533-0.34
		c0,0,8.764,31.13,10.127,44.557c1.208,11.891,3.18,44.161,3.18,44.161l0.36-0.075l11.535-2.399c0,0,0.026-0.346,0.069-0.954
		c0.366-5.166,2.031-30.516,0.642-46.587c-0.856-9.915,0.531-21.823-2.597-44.671C259.281,480.802,295.512,462.458,307.903,447.153z
		"/>
	<g>
		<g>
			<path fill="#FF5252" d="M328.625,42.734c-4.063-10.088-13.865-16.34-24.676-16.5c-8.789-0.128-22.269,5.346-18.056,16.573
				c0.522,1.393,2.373,1.851,3.388,0.675c5.041-5.838,11.003-6.875,18.606-4.889c4.934,1.289,12.036,7.542,9.306,13.207
				c-2.388,4.95-9.564,8.045-13.646,11.433c-5.737,4.762-9.783,10.786-9.277,18.519c0.206,3.149,2.402,5.452,5.371,6.236
				c1.886,0.498,3.545,0.006,5.147-1.013c1.915-1.218,3.174-3.702,2.966-5.972c-0.625-6.818,8.887-11.255,13.325-15.01
				C328.234,59.945,332.364,52.017,328.625,42.734z"/>
			<path fill="#FF5252" d="M300.792,98.932c-8.874-1.154-11.742,12.491-2.83,13.649C306.835,113.735,309.703,100.09,300.792,98.932z
				"/>
		</g>
		<g>
			<path fill="#FF5252" d="M252.833,89.494c1.8,5.685,6.897,9.511,12.8,10.05c4.8,0.437,12.397-1.994,10.562-8.307
				c-0.229-0.784-1.221-1.111-1.824-0.511c-2.999,2.981-6.302,3.3-10.375,1.896c-2.644-0.91-6.265-4.625-4.537-7.608
				c1.512-2.606,5.565-3.999,7.938-5.681c3.335-2.364,5.798-5.488,5.844-9.737c0.02-1.73-1.086-3.081-2.675-3.633
				c-1.011-0.351-1.938-0.151-2.857,0.339c-1.097,0.586-1.889,1.891-1.87,3.141c0.058,3.753-5.327,5.782-7.911,7.649
				C253.764,80.101,251.175,84.263,252.833,89.494z"/>
			<path fill="#FF5252" d="M270.391,59.934c4.805,1,6.941-6.339,2.117-7.344C267.706,51.589,265.569,58.929,270.391,59.934z"/>
		</g>
		<g opacity="0.3">
			<path fill="#FF5252" d="M351.644,127.553c1.586-3.622,0.713-7.756-1.996-10.602c-2.203-2.314-7.055-4.419-8.896-0.469
				c-0.229,0.491,0.123,1.087,0.687,1.051c2.798-0.178,4.584,1.105,6.003,3.584c0.921,1.608,1.106,5.043-1.059,5.776
				c-1.893,0.639-4.523-0.436-6.439-0.632c-2.697-0.276-5.29,0.206-7.168,2.305c-0.764,0.855-0.803,2.011-0.251,2.98
				c0.351,0.616,0.9,0.922,1.572,1.078c0.803,0.187,1.77-0.118,2.306-0.75c1.61-1.897,5.182-0.558,7.285-0.362
				C347.079,131.832,350.187,130.887,351.644,127.553z"/>
			<path fill="#FF5252" d="M329.977,134.632c-1.96-2.597-6.23,0.131-4.262,2.739C327.673,139.967,331.944,137.239,329.977,134.632z"
				/>
		</g>
		<g opacity="0.3">
			<path fill="#FF5252" d="M172.015,41.534c-3.603-5.28-10.017-7.634-16.242-6.365c-5.062,1.034-12.112,5.875-8.278,11.788
				c0.477,0.734,1.595,0.766,2.029-0.038c2.159-3.987,5.451-5.333,10.065-5.149c2.995,0.118,7.86,2.812,7.007,6.408
				c-0.749,3.143-4.48,5.824-6.395,8.283c-2.693,3.457-4.258,7.424-2.993,11.8c0.515,1.781,2.067,2.826,3.868,2.902
				c1.145,0.048,2.037-0.443,2.828-1.229c0.945-0.94,1.356-2.526,0.951-3.804c-1.217-3.835,3.683-7.58,5.758-10.294
				C173.959,51.463,175.332,46.393,172.015,41.534z"/>
			<path fill="#FF5252" d="M163.117,77.301c-5.241,0.457-5.168,8.65,0.095,8.192C168.451,85.038,168.377,76.844,163.117,77.301z"/>
		</g>
		<g opacity="0.3">
			<path fill="#FF5252" d="M119.254,126.797c4.463,1.142,9.054-0.638,11.819-4.288c2.247-2.97,3.756-8.945-1.133-10.32
				c-0.607-0.17-1.227,0.346-1.08,0.987c0.73,3.185-0.41,5.48-2.995,7.578c-1.677,1.361-5.592,2.22-6.842-0.132
				c-1.09-2.057-0.349-5.284-0.483-7.526c-0.189-3.153-1.231-6.045-3.999-7.81c-1.126-0.719-2.463-0.546-3.475,0.271
				c-0.643,0.519-0.891,1.21-0.945,2.011c-0.064,0.958,0.469,2.013,1.296,2.511c2.484,1.496,1.616,5.854,1.785,8.312
				C113.475,122.35,115.146,125.747,119.254,126.797z"/>
			<path fill="#FF5252" d="M107.041,103.207c2.619-2.742-1.322-7.141-3.951-4.387C100.472,101.56,104.412,105.958,107.041,103.207z"
				/>
		</g>
	</g>
	<g>
		<path fill="#FFFFFF" d="M313.421,302.074c-0.613-2.643-1.416-5.111-2.384-7.423c-9.264,3.097-102.607,32.792-199.779,6.327
			c-3.534,17.132-12.786,73.531,0.332,145.485c0,0,0.21,0.048,0.618,0.135c8.274,1.779,98.56,20.235,192.531,0.089
			c1.054-0.226,2.108-0.45,3.163-0.686C307.903,446.001,331.739,381.044,313.421,302.074z"/>
		<g>
			<path opacity="0.4" fill="#493F3E" d="M138.859,204.147c1.473-1.5,2.933-3.425,2.148-5.228c-0.948-2.166-3.603-2.408-5.872-2.393
				c1.156-3.354,4.628-7.927,0.628-10.352c-2.489-1.507-5.183,1-7.282,3.151c-0.056-2.616-0.492-5.803-2.806-5.425
				c-5.466,0.896-5.454,8.513-7.138,12.819c-4.105,3.43-7.9,6.682-11.424,9.806c-0.447,4.496-1.406,8.909-2.218,13.355
				c-0.171,1.96-0.36,3.572-0.677,5.511c9.523-10.408,17.432-16.5,17.432-16.5s1.562,0.339,2.188,0.725
				c4.108,2.526,13.368,5.413,17.612,1.722C145.021,208.237,142.068,205.473,138.859,204.147z M119.336,197.956
				c0.19,0.028,0.373,0.055,0.373,0.088c0,0.005,0,0.005,0,0.012c0,0.016-0.142,0.039-0.309,0.063L119.336,197.956z"/>
			<g>
				<path fill="#F7DEBF" d="M136.741,200.97c1.473-1.499,2.933-3.425,2.148-5.228c-0.948-2.166-3.603-2.408-5.871-2.393
					c1.155-3.354,4.628-7.927,0.628-10.352c-2.489-1.507-5.183,1-7.282,3.151c-0.056-2.616-0.492-5.803-2.806-5.425
					c-5.811,0.952-5.429,9.501-7.478,13.593c0.443-0.3,2.842,7.797,5.201,10.599c-0.16,0.534,13.816,6.938,18.061,3.247
					C142.912,205.06,139.95,202.295,136.741,200.97z"/>
				<path fill="#FFFFFF" d="M121.188,204.916c0,0-39.136,29.213-37.533,54.932c1.606,25.722,38.418,80.608,38.418,80.608
					l-7.578,12.438c0,0-42.276-56.596-44.892-84.432c-2.609-27.834,10.822-44.881,47.052-75.117"/>
			</g>
		</g>
		<g>
			<path opacity="0.4" fill="#493F3E" d="M303.045,202.594c0,0,3.187,2.503,8.341,6.703c-0.26-3.367,0.019-6.732-0.35-10.086
				c-0.243-0.765-0.397-1.592-0.421-2.5c-0.003-0.13-0.018-0.257-0.021-0.387c-0.466-1.037-0.748-2.225-0.772-3.584
				c0.038-0.828-0.021-1.647-0.128-2.463c-0.24-0.201-0.47-0.396-0.712-0.597l-0.206,0.448c-0.21-0.176-0.42-0.351-0.637-0.521
				c0.223-3.034-1.506-6.646-3.307-8.597c-0.968-1.049-2.266-1.647-3.542-1.444c-0.233-0.034-0.459,0.033-0.641,0.176
				c-0.27,0.104-0.536,0.235-0.795,0.424c-0.721,0.527-1.067,1.372-1.194,2.3c-2.518-2.496-6.203-5.116-8.477-2.421
				c-1.286,1.522-0.021,3.488,1.53,5.193c-2.804-0.115-5.778,0.171-6.765,2.459c-1.209,2.805,1.359,4.073,4.103,4.829
				c-2.175,0.516-3.86,1.783-2.614,4.339c0.993,2.035,3.669,2.438,5.595,2.991c3.465,0.993,7.38,2.107,11.062,2.633L303.045,202.594
				z"/>
			<g>
				<path fill="#F7DEBF" d="M308.139,186.429c0.223-3.034-1.506-6.646-3.307-8.597c-0.968-1.049-2.266-1.647-3.542-1.443
					c-0.233-0.034-0.459,0.032-0.641,0.176c-0.27,0.104-0.536,0.235-0.795,0.424c-0.721,0.527-1.067,1.373-1.194,2.3
					c-2.518-2.495-6.203-5.116-8.477-2.421c-1.286,1.523-0.021,3.488,1.53,5.193c-2.804-0.115-5.778,0.171-6.765,2.459
					c-1.209,2.805,1.359,4.074,4.103,4.829c-2.175,0.516-3.86,1.784-2.614,4.339c0.993,2.035,3.669,2.438,5.595,2.991
					c3.465,0.994,7.38,2.107,11.062,2.634l5.682-12.361C308.566,186.774,308.356,186.6,308.139,186.429z"/>
				<path fill="#FFFFFF" d="M308.982,186.502l-0.206,0.448l-5.682,12.361l-0.049,0.106c0,0,40.703,27.298,39.1,53.018
					c-1.605,25.722-39.477,88.021-39.477,88.021l7.577,12.438c0,0,43.335-64.009,45.951-91.845
					C358.805,233.215,345.212,216.739,308.982,186.502z"/>
			</g>
		</g>
		<g>
			<path fill="#CA4E46" d="M213.737,328.313c0,0-8.639,40.246-6.958,49.538c1.682,9.294,12.428,45.001,15.643,45.516
				c3.218,0.514,13.068-40.069,12.494-46.524c-0.574-6.454-13.076-48.795-13.076-48.795s4.159-2.769,5.002-7.103
				c1.009-5.183-3.217-10.047-10.223-9.504C209.613,311.982,204.422,320.609,213.737,328.313z"/>
			<g>
				<path fill="#DBDEDC" d="M110.732,297.559l-1.296,13.339c0,0,59.063,13.83,82.038,28.274c0,0,7.244-26.75,24.889-27.831
					C216.363,311.341,157.451,313.898,110.732,297.559z"/>
				<path fill="#DBDEDC" d="M225.154,310.779c0,0,33.815,4.02,38.48,24.093c0,0,26.273-23.216,50.925-27.663
					c0,0-1.183-10.171-2.756-12.817C311.803,294.391,265.784,305.923,225.154,310.779z"/>
			</g>
		</g>
	</g>
</g>
</svg>
